<mxfile host="app.diagrams.net" agent="Mozilla/5.0 (Windows NT 10.0; Win64; x64) AppleWebKit/537.36 (KHTML, like Gecko) Chrome/131.0.0.0 Safari/537.36" version="26.0.3">
  <diagram name="Page-1" id="WxPVzVjmOgeVhJRYThN7">
    <mxGraphModel dx="880" dy="434" grid="1" gridSize="10" guides="1" tooltips="1" connect="1" arrows="1" fold="1" page="1" pageScale="1" pageWidth="850" pageHeight="1100" math="0" shadow="0">
      <root>
        <mxCell id="0" />
        <mxCell id="1" parent="0" />
        <mxCell id="EmYNrW-UYTVErEBDmMjE-1" value="Entity" style="whiteSpace=wrap;html=1;align=center;" vertex="1" parent="1">
          <mxGeometry x="500" y="220" width="100" height="40" as="geometry" />
        </mxCell>
        <mxCell id="EmYNrW-UYTVErEBDmMjE-2" value="Entity" style="whiteSpace=wrap;html=1;align=center;" vertex="1" parent="1">
          <mxGeometry x="500" y="220" width="100" height="40" as="geometry" />
        </mxCell>
        <mxCell id="EmYNrW-UYTVErEBDmMjE-3" value="Entity" style="whiteSpace=wrap;html=1;align=center;" vertex="1" parent="1">
          <mxGeometry x="500" y="220" width="100" height="40" as="geometry" />
        </mxCell>
        <mxCell id="EmYNrW-UYTVErEBDmMjE-4" value="Entity" style="whiteSpace=wrap;html=1;align=center;" vertex="1" parent="1">
          <mxGeometry x="500" y="220" width="100" height="40" as="geometry" />
        </mxCell>
        <mxCell id="EmYNrW-UYTVErEBDmMjE-5" value="Entity" style="whiteSpace=wrap;html=1;align=center;" vertex="1" parent="1">
          <mxGeometry x="500" y="220" width="100" height="40" as="geometry" />
        </mxCell>
        <mxCell id="EmYNrW-UYTVErEBDmMjE-6" value="Entity" style="whiteSpace=wrap;html=1;align=center;" vertex="1" parent="1">
          <mxGeometry x="500" y="220" width="100" height="40" as="geometry" />
        </mxCell>
        <mxCell id="EmYNrW-UYTVErEBDmMjE-7" value="Entity" style="whiteSpace=wrap;html=1;align=center;" vertex="1" parent="1">
          <mxGeometry x="500" y="220" width="100" height="40" as="geometry" />
        </mxCell>
        <mxCell id="EmYNrW-UYTVErEBDmMjE-8" value="Entity" style="whiteSpace=wrap;html=1;align=center;" vertex="1" parent="1">
          <mxGeometry x="500" y="220" width="100" height="40" as="geometry" />
        </mxCell>
        <mxCell id="EmYNrW-UYTVErEBDmMjE-9" value="Entity" style="whiteSpace=wrap;html=1;align=center;" vertex="1" parent="1">
          <mxGeometry x="500" y="220" width="100" height="40" as="geometry" />
        </mxCell>
        <mxCell id="EmYNrW-UYTVErEBDmMjE-10" value="Entity" style="whiteSpace=wrap;html=1;align=center;" vertex="1" parent="1">
          <mxGeometry x="500" y="220" width="100" height="40" as="geometry" />
        </mxCell>
        <mxCell id="EmYNrW-UYTVErEBDmMjE-11" value="Entity" style="whiteSpace=wrap;html=1;align=center;" vertex="1" parent="1">
          <mxGeometry x="500" y="220" width="100" height="40" as="geometry" />
        </mxCell>
        <mxCell id="EmYNrW-UYTVErEBDmMjE-12" value="Entity" style="whiteSpace=wrap;html=1;align=center;" vertex="1" parent="1">
          <mxGeometry x="500" y="220" width="100" height="40" as="geometry" />
        </mxCell>
        <mxCell id="EmYNrW-UYTVErEBDmMjE-13" value="Entity" style="rounded=1;arcSize=10;whiteSpace=wrap;html=1;align=center;" vertex="1" parent="1">
          <mxGeometry x="500" y="220" width="100" height="40" as="geometry" />
        </mxCell>
        <mxCell id="EmYNrW-UYTVErEBDmMjE-14" value="Entity" style="rounded=1;arcSize=10;whiteSpace=wrap;html=1;align=center;" vertex="1" parent="1">
          <mxGeometry x="500" y="220" width="100" height="40" as="geometry" />
        </mxCell>
        <mxCell id="EmYNrW-UYTVErEBDmMjE-15" value="Entity" style="rounded=1;arcSize=10;whiteSpace=wrap;html=1;align=center;" vertex="1" parent="1">
          <mxGeometry x="500" y="220" width="100" height="40" as="geometry" />
        </mxCell>
        <mxCell id="EmYNrW-UYTVErEBDmMjE-16" value="Entity" style="rounded=1;arcSize=10;whiteSpace=wrap;html=1;align=center;" vertex="1" parent="1">
          <mxGeometry x="500" y="220" width="100" height="40" as="geometry" />
        </mxCell>
        <mxCell id="EmYNrW-UYTVErEBDmMjE-17" value="Entity" style="rounded=1;arcSize=10;whiteSpace=wrap;html=1;align=center;" vertex="1" parent="1">
          <mxGeometry x="500" y="220" width="100" height="40" as="geometry" />
        </mxCell>
        <mxCell id="EmYNrW-UYTVErEBDmMjE-18" value="Entity" style="rounded=1;arcSize=10;whiteSpace=wrap;html=1;align=center;" vertex="1" parent="1">
          <mxGeometry x="500" y="220" width="100" height="40" as="geometry" />
        </mxCell>
        <mxCell id="EmYNrW-UYTVErEBDmMjE-19" value="Entity" style="rounded=1;arcSize=10;whiteSpace=wrap;html=1;align=center;" vertex="1" parent="1">
          <mxGeometry x="500" y="220" width="100" height="40" as="geometry" />
        </mxCell>
        <mxCell id="EmYNrW-UYTVErEBDmMjE-75" style="edgeStyle=orthogonalEdgeStyle;rounded=0;orthogonalLoop=1;jettySize=auto;html=1;" edge="1" parent="1" source="EmYNrW-UYTVErEBDmMjE-20" target="EmYNrW-UYTVErEBDmMjE-73">
          <mxGeometry relative="1" as="geometry" />
        </mxCell>
        <mxCell id="EmYNrW-UYTVErEBDmMjE-78" style="edgeStyle=orthogonalEdgeStyle;rounded=0;orthogonalLoop=1;jettySize=auto;html=1;entryX=0;entryY=0;entryDx=0;entryDy=0;" edge="1" parent="1" source="EmYNrW-UYTVErEBDmMjE-20" target="EmYNrW-UYTVErEBDmMjE-72">
          <mxGeometry relative="1" as="geometry" />
        </mxCell>
        <mxCell id="EmYNrW-UYTVErEBDmMjE-20" value="User" style="rounded=1;arcSize=10;whiteSpace=wrap;html=1;align=center;direction=west;fillColor=#66FF66;" vertex="1" parent="1">
          <mxGeometry x="500" y="220" width="100" height="40" as="geometry" />
        </mxCell>
        <mxCell id="EmYNrW-UYTVErEBDmMjE-21" value="Catagory" style="rounded=1;arcSize=10;whiteSpace=wrap;html=1;align=center;fillColor=#66FF66;" vertex="1" parent="1">
          <mxGeometry x="210" y="80" width="100" height="40" as="geometry" />
        </mxCell>
        <mxCell id="EmYNrW-UYTVErEBDmMjE-121" style="edgeStyle=orthogonalEdgeStyle;rounded=0;orthogonalLoop=1;jettySize=auto;html=1;entryX=1;entryY=0;entryDx=0;entryDy=0;" edge="1" parent="1" source="EmYNrW-UYTVErEBDmMjE-30" target="EmYNrW-UYTVErEBDmMjE-110">
          <mxGeometry relative="1" as="geometry" />
        </mxCell>
        <mxCell id="EmYNrW-UYTVErEBDmMjE-30" value="Blog" style="whiteSpace=wrap;html=1;align=center;fillColor=#66FF66;" vertex="1" parent="1">
          <mxGeometry x="190" y="210" width="100" height="40" as="geometry" />
        </mxCell>
        <mxCell id="EmYNrW-UYTVErEBDmMjE-118" style="edgeStyle=orthogonalEdgeStyle;rounded=0;orthogonalLoop=1;jettySize=auto;html=1;entryX=1;entryY=0;entryDx=0;entryDy=0;" edge="1" parent="1" source="EmYNrW-UYTVErEBDmMjE-46" target="EmYNrW-UYTVErEBDmMjE-83">
          <mxGeometry relative="1" as="geometry" />
        </mxCell>
        <mxCell id="EmYNrW-UYTVErEBDmMjE-46" value="Like" style="whiteSpace=wrap;html=1;align=center;fillColor=#66FF66;" vertex="1" parent="1">
          <mxGeometry x="240" y="392.07" width="80" height="40" as="geometry" />
        </mxCell>
        <mxCell id="EmYNrW-UYTVErEBDmMjE-117" style="edgeStyle=orthogonalEdgeStyle;rounded=0;orthogonalLoop=1;jettySize=auto;html=1;entryX=1;entryY=0;entryDx=0;entryDy=0;" edge="1" parent="1" source="EmYNrW-UYTVErEBDmMjE-47">
          <mxGeometry relative="1" as="geometry">
            <mxPoint x="69.74873734152925" y="467.92786437626904" as="targetPoint" />
          </mxGeometry>
        </mxCell>
        <mxCell id="EmYNrW-UYTVErEBDmMjE-47" value="Comment" style="whiteSpace=wrap;html=1;align=center;fillColor=#66FF66;" vertex="1" parent="1">
          <mxGeometry x="40" y="392.07" width="100" height="40" as="geometry" />
        </mxCell>
        <mxCell id="EmYNrW-UYTVErEBDmMjE-48" value="Image" style="whiteSpace=wrap;html=1;align=center;fillColor=#66FF66;" vertex="1" parent="1">
          <mxGeometry x="620" y="480" width="100" height="40" as="geometry" />
        </mxCell>
        <mxCell id="EmYNrW-UYTVErEBDmMjE-109" style="edgeStyle=orthogonalEdgeStyle;rounded=0;orthogonalLoop=1;jettySize=auto;html=1;entryX=0;entryY=0.5;entryDx=0;entryDy=0;" edge="1" parent="1" source="EmYNrW-UYTVErEBDmMjE-55">
          <mxGeometry relative="1" as="geometry">
            <mxPoint x="650" y="40" as="targetPoint" />
          </mxGeometry>
        </mxCell>
        <mxCell id="EmYNrW-UYTVErEBDmMjE-55" value="Channel" style="whiteSpace=wrap;html=1;align=center;fillColor=#66FF66;" vertex="1" parent="1">
          <mxGeometry x="505" y="30" width="100" height="40" as="geometry" />
        </mxCell>
        <mxCell id="EmYNrW-UYTVErEBDmMjE-57" value="imageable_type" style="ellipse;whiteSpace=wrap;html=1;align=center;fillColor=#99CCFF;" vertex="1" parent="1">
          <mxGeometry x="580" y="410" width="100" height="40" as="geometry" />
        </mxCell>
        <mxCell id="EmYNrW-UYTVErEBDmMjE-64" value="name" style="ellipse;whiteSpace=wrap;html=1;align=center;fontStyle=4;fillColor=#FF99CC;" vertex="1" parent="1">
          <mxGeometry x="650" y="10" width="70" height="40" as="geometry" />
        </mxCell>
        <mxCell id="EmYNrW-UYTVErEBDmMjE-67" value="name" style="ellipse;whiteSpace=wrap;html=1;align=center;fontStyle=4;fillColor=#FF99CC;" vertex="1" parent="1">
          <mxGeometry x="150" y="10" width="80" height="40" as="geometry" />
        </mxCell>
        <mxCell id="EmYNrW-UYTVErEBDmMjE-70" value="email" style="ellipse;whiteSpace=wrap;html=1;align=center;fontStyle=4;fillColor=#FF99CC;" vertex="1" parent="1">
          <mxGeometry x="465" y="330" width="70" height="40" as="geometry" />
        </mxCell>
        <mxCell id="EmYNrW-UYTVErEBDmMjE-71" value="password" style="ellipse;whiteSpace=wrap;html=1;align=center;fillColor=#99CCFF;" vertex="1" parent="1">
          <mxGeometry x="640" y="260" width="70" height="40" as="geometry" />
        </mxCell>
        <mxCell id="EmYNrW-UYTVErEBDmMjE-72" value="name" style="ellipse;whiteSpace=wrap;html=1;align=center;fillColor=#99CCFF;" vertex="1" parent="1">
          <mxGeometry x="570" y="290" width="60" height="40" as="geometry" />
        </mxCell>
        <mxCell id="EmYNrW-UYTVErEBDmMjE-73" value="email_verified_at" style="ellipse;whiteSpace=wrap;html=1;align=center;fillColor=#99CCFF;" vertex="1" parent="1">
          <mxGeometry x="670" y="188" width="100" height="50" as="geometry" />
        </mxCell>
        <mxCell id="EmYNrW-UYTVErEBDmMjE-76" style="edgeStyle=orthogonalEdgeStyle;rounded=0;orthogonalLoop=1;jettySize=auto;html=1;entryX=0.814;entryY=0;entryDx=0;entryDy=0;entryPerimeter=0;" edge="1" parent="1" source="EmYNrW-UYTVErEBDmMjE-20">
          <mxGeometry relative="1" as="geometry">
            <mxPoint x="506.98" y="330" as="targetPoint" />
          </mxGeometry>
        </mxCell>
        <mxCell id="EmYNrW-UYTVErEBDmMjE-77" style="edgeStyle=orthogonalEdgeStyle;rounded=0;orthogonalLoop=1;jettySize=auto;html=1;entryX=0.371;entryY=0.1;entryDx=0;entryDy=0;entryPerimeter=0;" edge="1" parent="1" source="EmYNrW-UYTVErEBDmMjE-20" target="EmYNrW-UYTVErEBDmMjE-71">
          <mxGeometry relative="1" as="geometry" />
        </mxCell>
        <mxCell id="EmYNrW-UYTVErEBDmMjE-79" value="imageable_id" style="ellipse;whiteSpace=wrap;html=1;align=center;fontStyle=4;fillColor=#FF99CC;" vertex="1" parent="1">
          <mxGeometry x="700" y="400" width="100" height="40" as="geometry" />
        </mxCell>
        <mxCell id="EmYNrW-UYTVErEBDmMjE-80" style="edgeStyle=orthogonalEdgeStyle;rounded=0;orthogonalLoop=1;jettySize=auto;html=1;entryX=0.76;entryY=0.875;entryDx=0;entryDy=0;entryPerimeter=0;" edge="1" parent="1" source="EmYNrW-UYTVErEBDmMjE-48" target="EmYNrW-UYTVErEBDmMjE-57">
          <mxGeometry relative="1" as="geometry" />
        </mxCell>
        <mxCell id="EmYNrW-UYTVErEBDmMjE-81" style="edgeStyle=orthogonalEdgeStyle;rounded=0;orthogonalLoop=1;jettySize=auto;html=1;entryX=0.3;entryY=0.95;entryDx=0;entryDy=0;entryPerimeter=0;" edge="1" parent="1" source="EmYNrW-UYTVErEBDmMjE-48" target="EmYNrW-UYTVErEBDmMjE-79">
          <mxGeometry relative="1" as="geometry" />
        </mxCell>
        <mxCell id="EmYNrW-UYTVErEBDmMjE-82" value="content" style="ellipse;whiteSpace=wrap;html=1;align=center;fillColor=#99CCFF;" vertex="1" parent="1">
          <mxGeometry x="30" y="470" width="70" height="40" as="geometry" />
        </mxCell>
        <mxCell id="EmYNrW-UYTVErEBDmMjE-83" value="type" style="ellipse;whiteSpace=wrap;html=1;align=center;fillColor=#99CCFF;" vertex="1" parent="1">
          <mxGeometry x="210" y="462.07" width="70" height="40" as="geometry" />
        </mxCell>
        <mxCell id="EmYNrW-UYTVErEBDmMjE-89" value="" style="endArrow=none;html=1;rounded=0;exitX=1;exitY=0.25;exitDx=0;exitDy=0;" edge="1" parent="1" source="EmYNrW-UYTVErEBDmMjE-30">
          <mxGeometry relative="1" as="geometry">
            <mxPoint x="340" y="220" as="sourcePoint" />
            <mxPoint x="500" y="220" as="targetPoint" />
          </mxGeometry>
        </mxCell>
        <mxCell id="EmYNrW-UYTVErEBDmMjE-90" value="1" style="resizable=0;html=1;whiteSpace=wrap;align=right;verticalAlign=bottom;" connectable="0" vertex="1" parent="EmYNrW-UYTVErEBDmMjE-89">
          <mxGeometry x="1" relative="1" as="geometry">
            <mxPoint x="-10" as="offset" />
          </mxGeometry>
        </mxCell>
        <mxCell id="EmYNrW-UYTVErEBDmMjE-91" value="N" style="text;html=1;align=center;verticalAlign=middle;resizable=0;points=[];autosize=1;strokeColor=none;fillColor=none;" vertex="1" parent="1">
          <mxGeometry x="285" y="198" width="30" height="30" as="geometry" />
        </mxCell>
        <mxCell id="EmYNrW-UYTVErEBDmMjE-94" value="" style="endArrow=none;html=1;rounded=0;entryX=0.5;entryY=1;entryDx=0;entryDy=0;exitX=0.32;exitY=-0.025;exitDx=0;exitDy=0;exitPerimeter=0;" edge="1" parent="1" source="EmYNrW-UYTVErEBDmMjE-30" target="EmYNrW-UYTVErEBDmMjE-21">
          <mxGeometry relative="1" as="geometry">
            <mxPoint x="170" y="160" as="sourcePoint" />
            <mxPoint x="330" y="160" as="targetPoint" />
          </mxGeometry>
        </mxCell>
        <mxCell id="EmYNrW-UYTVErEBDmMjE-95" value="1" style="resizable=0;html=1;whiteSpace=wrap;align=right;verticalAlign=bottom;" connectable="0" vertex="1" parent="EmYNrW-UYTVErEBDmMjE-94">
          <mxGeometry x="1" relative="1" as="geometry">
            <mxPoint x="-10" y="20" as="offset" />
          </mxGeometry>
        </mxCell>
        <mxCell id="EmYNrW-UYTVErEBDmMjE-96" value="M" style="text;html=1;align=center;verticalAlign=middle;resizable=0;points=[];autosize=1;strokeColor=none;fillColor=none;" vertex="1" parent="1">
          <mxGeometry x="200" y="180" width="30" height="30" as="geometry" />
        </mxCell>
        <mxCell id="EmYNrW-UYTVErEBDmMjE-101" style="edgeStyle=orthogonalEdgeStyle;rounded=0;orthogonalLoop=1;jettySize=auto;html=1;entryX=0.75;entryY=1;entryDx=0;entryDy=0;" edge="1" parent="1" source="EmYNrW-UYTVErEBDmMjE-97" target="EmYNrW-UYTVErEBDmMjE-55">
          <mxGeometry relative="1" as="geometry" />
        </mxCell>
        <mxCell id="EmYNrW-UYTVErEBDmMjE-102" style="edgeStyle=orthogonalEdgeStyle;rounded=0;orthogonalLoop=1;jettySize=auto;html=1;entryX=0.25;entryY=1;entryDx=0;entryDy=0;" edge="1" parent="1" source="EmYNrW-UYTVErEBDmMjE-97" target="EmYNrW-UYTVErEBDmMjE-20">
          <mxGeometry relative="1" as="geometry" />
        </mxCell>
        <mxCell id="EmYNrW-UYTVErEBDmMjE-97" value="have" style="shape=rhombus;perimeter=rhombusPerimeter;whiteSpace=wrap;html=1;align=center;fillColor=#FFB570;" vertex="1" parent="1">
          <mxGeometry x="590" y="110" width="80" height="60" as="geometry" />
        </mxCell>
        <mxCell id="EmYNrW-UYTVErEBDmMjE-99" value="subscribtion" style="shape=rhombus;perimeter=rhombusPerimeter;whiteSpace=wrap;html=1;align=center;fillColor=#FFB570;" vertex="1" parent="1">
          <mxGeometry x="440" y="110" width="90" height="60" as="geometry" />
        </mxCell>
        <mxCell id="EmYNrW-UYTVErEBDmMjE-103" style="edgeStyle=orthogonalEdgeStyle;rounded=0;orthogonalLoop=1;jettySize=auto;html=1;entryX=0.14;entryY=1.075;entryDx=0;entryDy=0;entryPerimeter=0;" edge="1" parent="1" source="EmYNrW-UYTVErEBDmMjE-99" target="EmYNrW-UYTVErEBDmMjE-55">
          <mxGeometry relative="1" as="geometry" />
        </mxCell>
        <mxCell id="EmYNrW-UYTVErEBDmMjE-104" style="edgeStyle=orthogonalEdgeStyle;rounded=0;orthogonalLoop=1;jettySize=auto;html=1;entryX=0.61;entryY=0.975;entryDx=0;entryDy=0;entryPerimeter=0;" edge="1" parent="1" source="EmYNrW-UYTVErEBDmMjE-99" target="EmYNrW-UYTVErEBDmMjE-20">
          <mxGeometry relative="1" as="geometry" />
        </mxCell>
        <mxCell id="EmYNrW-UYTVErEBDmMjE-105" value="1" style="text;html=1;align=center;verticalAlign=middle;resizable=0;points=[];autosize=1;strokeColor=none;fillColor=none;" vertex="1" parent="1">
          <mxGeometry x="575" y="170" width="30" height="30" as="geometry" />
        </mxCell>
        <mxCell id="EmYNrW-UYTVErEBDmMjE-106" value="M" style="text;html=1;align=center;verticalAlign=middle;resizable=0;points=[];autosize=1;strokeColor=none;fillColor=none;" vertex="1" parent="1">
          <mxGeometry x="585" y="68" width="30" height="30" as="geometry" />
        </mxCell>
        <mxCell id="EmYNrW-UYTVErEBDmMjE-107" value="M" style="text;html=1;align=center;verticalAlign=middle;resizable=0;points=[];autosize=1;strokeColor=none;fillColor=none;" vertex="1" parent="1">
          <mxGeometry x="485" y="68" width="30" height="30" as="geometry" />
        </mxCell>
        <mxCell id="EmYNrW-UYTVErEBDmMjE-108" value="N" style="text;html=1;align=center;verticalAlign=middle;resizable=0;points=[];autosize=1;strokeColor=none;fillColor=none;" vertex="1" parent="1">
          <mxGeometry x="505" y="170" width="30" height="30" as="geometry" />
        </mxCell>
        <mxCell id="EmYNrW-UYTVErEBDmMjE-110" value="title" style="ellipse;whiteSpace=wrap;html=1;align=center;fillColor=#99CCFF;" vertex="1" parent="1">
          <mxGeometry x="50" y="250" width="80" height="40" as="geometry" />
        </mxCell>
        <mxCell id="EmYNrW-UYTVErEBDmMjE-111" value="content" style="ellipse;whiteSpace=wrap;html=1;align=center;fillColor=#99CCFF;" vertex="1" parent="1">
          <mxGeometry x="50" y="165" width="80" height="40" as="geometry" />
        </mxCell>
        <mxCell id="EmYNrW-UYTVErEBDmMjE-119" style="edgeStyle=orthogonalEdgeStyle;rounded=0;orthogonalLoop=1;jettySize=auto;html=1;entryX=0.913;entryY=0.7;entryDx=0;entryDy=0;entryPerimeter=0;" edge="1" parent="1" source="EmYNrW-UYTVErEBDmMjE-21" target="EmYNrW-UYTVErEBDmMjE-67">
          <mxGeometry relative="1" as="geometry" />
        </mxCell>
        <mxCell id="EmYNrW-UYTVErEBDmMjE-120" style="edgeStyle=orthogonalEdgeStyle;rounded=0;orthogonalLoop=1;jettySize=auto;html=1;entryX=0.938;entryY=0.75;entryDx=0;entryDy=0;entryPerimeter=0;" edge="1" parent="1" source="EmYNrW-UYTVErEBDmMjE-30" target="EmYNrW-UYTVErEBDmMjE-111">
          <mxGeometry relative="1" as="geometry" />
        </mxCell>
        <mxCell id="EmYNrW-UYTVErEBDmMjE-126" value="" style="endArrow=none;html=1;rounded=0;entryX=0.25;entryY=1;entryDx=0;entryDy=0;" edge="1" parent="1" target="EmYNrW-UYTVErEBDmMjE-30">
          <mxGeometry relative="1" as="geometry">
            <mxPoint x="90" y="390" as="sourcePoint" />
            <mxPoint x="320" y="330" as="targetPoint" />
          </mxGeometry>
        </mxCell>
        <mxCell id="EmYNrW-UYTVErEBDmMjE-127" value="M" style="resizable=0;html=1;whiteSpace=wrap;align=left;verticalAlign=bottom;" connectable="0" vertex="1" parent="EmYNrW-UYTVErEBDmMjE-126">
          <mxGeometry x="-1" relative="1" as="geometry">
            <mxPoint x="-10" y="-10" as="offset" />
          </mxGeometry>
        </mxCell>
        <mxCell id="EmYNrW-UYTVErEBDmMjE-128" value="1" style="resizable=0;html=1;whiteSpace=wrap;align=right;verticalAlign=bottom;" connectable="0" vertex="1" parent="EmYNrW-UYTVErEBDmMjE-126">
          <mxGeometry x="1" relative="1" as="geometry">
            <mxPoint x="-15" y="20" as="offset" />
          </mxGeometry>
        </mxCell>
        <mxCell id="EmYNrW-UYTVErEBDmMjE-129" value="" style="endArrow=none;html=1;rounded=0;entryX=0.64;entryY=1.025;entryDx=0;entryDy=0;entryPerimeter=0;" edge="1" parent="1" target="EmYNrW-UYTVErEBDmMjE-30">
          <mxGeometry relative="1" as="geometry">
            <mxPoint x="260" y="390" as="sourcePoint" />
            <mxPoint x="340" y="340" as="targetPoint" />
          </mxGeometry>
        </mxCell>
        <mxCell id="EmYNrW-UYTVErEBDmMjE-130" value="M" style="resizable=0;html=1;whiteSpace=wrap;align=left;verticalAlign=bottom;" connectable="0" vertex="1" parent="EmYNrW-UYTVErEBDmMjE-129">
          <mxGeometry x="-1" relative="1" as="geometry">
            <mxPoint x="-20" y="-10" as="offset" />
          </mxGeometry>
        </mxCell>
        <mxCell id="EmYNrW-UYTVErEBDmMjE-131" value="1" style="resizable=0;html=1;whiteSpace=wrap;align=right;verticalAlign=bottom;" connectable="0" vertex="1" parent="EmYNrW-UYTVErEBDmMjE-129">
          <mxGeometry x="1" relative="1" as="geometry">
            <mxPoint x="16" y="19" as="offset" />
          </mxGeometry>
        </mxCell>
        <mxCell id="EmYNrW-UYTVErEBDmMjE-132" value="" style="endArrow=none;html=1;rounded=0;entryX=0.75;entryY=0;entryDx=0;entryDy=0;exitX=1;exitY=0;exitDx=0;exitDy=0;" edge="1" parent="1" source="EmYNrW-UYTVErEBDmMjE-46" target="EmYNrW-UYTVErEBDmMjE-20">
          <mxGeometry relative="1" as="geometry">
            <mxPoint x="300" y="340" as="sourcePoint" />
            <mxPoint x="460" y="340" as="targetPoint" />
          </mxGeometry>
        </mxCell>
        <mxCell id="EmYNrW-UYTVErEBDmMjE-133" value="M" style="resizable=0;html=1;whiteSpace=wrap;align=left;verticalAlign=bottom;" connectable="0" vertex="1" parent="EmYNrW-UYTVErEBDmMjE-132">
          <mxGeometry x="-1" relative="1" as="geometry">
            <mxPoint x="10" y="18" as="offset" />
          </mxGeometry>
        </mxCell>
        <mxCell id="EmYNrW-UYTVErEBDmMjE-134" value="N" style="resizable=0;html=1;whiteSpace=wrap;align=right;verticalAlign=bottom;" connectable="0" vertex="1" parent="EmYNrW-UYTVErEBDmMjE-132">
          <mxGeometry x="1" relative="1" as="geometry">
            <mxPoint x="-24" y="15" as="offset" />
          </mxGeometry>
        </mxCell>
        <mxCell id="EmYNrW-UYTVErEBDmMjE-135" value="" style="endArrow=none;html=1;rounded=0;entryX=1;entryY=0.5;entryDx=0;entryDy=0;exitX=1;exitY=0;exitDx=0;exitDy=0;" edge="1" parent="1" source="EmYNrW-UYTVErEBDmMjE-47" target="EmYNrW-UYTVErEBDmMjE-20">
          <mxGeometry relative="1" as="geometry">
            <mxPoint x="260" y="300" as="sourcePoint" />
            <mxPoint x="420" y="300" as="targetPoint" />
          </mxGeometry>
        </mxCell>
        <mxCell id="EmYNrW-UYTVErEBDmMjE-136" value="M" style="resizable=0;html=1;whiteSpace=wrap;align=left;verticalAlign=bottom;" connectable="0" vertex="1" parent="EmYNrW-UYTVErEBDmMjE-135">
          <mxGeometry x="-1" relative="1" as="geometry">
            <mxPoint x="-10" y="-2" as="offset" />
          </mxGeometry>
        </mxCell>
        <mxCell id="EmYNrW-UYTVErEBDmMjE-137" value="N" style="resizable=0;html=1;whiteSpace=wrap;align=right;verticalAlign=bottom;" connectable="0" vertex="1" parent="EmYNrW-UYTVErEBDmMjE-135">
          <mxGeometry x="1" relative="1" as="geometry">
            <mxPoint x="-20" y="10" as="offset" />
          </mxGeometry>
        </mxCell>
        <mxCell id="EmYNrW-UYTVErEBDmMjE-145" style="edgeStyle=orthogonalEdgeStyle;rounded=0;orthogonalLoop=1;jettySize=auto;html=1;entryX=1;entryY=0.5;entryDx=0;entryDy=0;" edge="1" parent="1" source="EmYNrW-UYTVErEBDmMjE-140" target="EmYNrW-UYTVErEBDmMjE-141">
          <mxGeometry relative="1" as="geometry" />
        </mxCell>
        <mxCell id="EmYNrW-UYTVErEBDmMjE-146" style="edgeStyle=orthogonalEdgeStyle;rounded=0;orthogonalLoop=1;jettySize=auto;html=1;entryX=0.5;entryY=0;entryDx=0;entryDy=0;" edge="1" parent="1" source="EmYNrW-UYTVErEBDmMjE-140" target="EmYNrW-UYTVErEBDmMjE-142">
          <mxGeometry relative="1" as="geometry" />
        </mxCell>
        <mxCell id="EmYNrW-UYTVErEBDmMjE-151" style="edgeStyle=orthogonalEdgeStyle;rounded=0;orthogonalLoop=1;jettySize=auto;html=1;entryX=0;entryY=1;entryDx=0;entryDy=0;" edge="1" parent="1" source="EmYNrW-UYTVErEBDmMjE-140" target="EmYNrW-UYTVErEBDmMjE-144">
          <mxGeometry relative="1" as="geometry" />
        </mxCell>
        <mxCell id="EmYNrW-UYTVErEBDmMjE-140" value="Admin" style="rounded=1;arcSize=10;whiteSpace=wrap;html=1;align=center;direction=west;fillColor=#66FF66;" vertex="1" parent="1">
          <mxGeometry x="585" y="660" width="100" height="40" as="geometry" />
        </mxCell>
        <mxCell id="EmYNrW-UYTVErEBDmMjE-141" value="email" style="ellipse;whiteSpace=wrap;html=1;align=center;fontStyle=4;fillColor=#FF99CC;" vertex="1" parent="1">
          <mxGeometry x="515" y="602" width="70" height="40" as="geometry" />
        </mxCell>
        <mxCell id="EmYNrW-UYTVErEBDmMjE-142" value="password" style="ellipse;whiteSpace=wrap;html=1;align=center;fillColor=#99CCFF;" vertex="1" parent="1">
          <mxGeometry x="710" y="690" width="70" height="40" as="geometry" />
        </mxCell>
        <mxCell id="EmYNrW-UYTVErEBDmMjE-143" value="name" style="ellipse;whiteSpace=wrap;html=1;align=center;fillColor=#99CCFF;" vertex="1" parent="1">
          <mxGeometry x="510" y="700" width="60" height="40" as="geometry" />
        </mxCell>
        <mxCell id="EmYNrW-UYTVErEBDmMjE-144" value="email_verified_at" style="ellipse;whiteSpace=wrap;html=1;align=center;fillColor=#99CCFF;" vertex="1" parent="1">
          <mxGeometry x="670" y="580" width="100" height="50" as="geometry" />
        </mxCell>
        <mxCell id="EmYNrW-UYTVErEBDmMjE-147" style="edgeStyle=orthogonalEdgeStyle;rounded=0;orthogonalLoop=1;jettySize=auto;html=1;entryX=0.4;entryY=-0.025;entryDx=0;entryDy=0;entryPerimeter=0;" edge="1" parent="1" source="EmYNrW-UYTVErEBDmMjE-140" target="EmYNrW-UYTVErEBDmMjE-143">
          <mxGeometry relative="1" as="geometry" />
        </mxCell>
        <mxCell id="EmYNrW-UYTVErEBDmMjE-156" value="** Notes :&#xa;-  Imageable_id refers to the model id like user_id or blog_id.&#xa;-  Imageable_type refers to the model type like user or blog." style="text;whiteSpace=wrap;fillColor=#FFFF66;" vertex="1" parent="1">
          <mxGeometry x="30" y="870" width="360" height="60" as="geometry" />
        </mxCell>
        <mxCell id="EmYNrW-UYTVErEBDmMjE-157" value="** Relationships :&#xa;-  A User can create multiple Blogs.&#xa;-  A User can create multiple Channels.&#xa;-  A User can like multiple Blogs.&#xa;-  A User can comment on multiple Blogs.&#xa;-  A User can subscribe to multiple Channels.&#xa;-  A User can have one image.&#xa;-  A Blog belongs to one Catagory&#xa;-  A Blog belongs to one User.&#xa;-  A Blog belongs to one Channel.&#xa;-  A Blog can have multiple Likes.&#xa;-  A Blog can have multiple Comments.&#xa;-  A Blog can have multiple Images.&#xa;-  A Channel belongs to one User.&#xa;-  A Channel can have multiple Blogs.&#xa;-  A Channel can have multiple Subscriptions." style="text;whiteSpace=wrap;fillColor=#FFFF66;" vertex="1" parent="1">
          <mxGeometry x="30" y="580" width="270" height="250" as="geometry" />
        </mxCell>
      </root>
    </mxGraphModel>
  </diagram>
</mxfile>
